<svg width="219" height="86" viewBox="0 0 219 86" fill="none" xmlns="http://www.w3.org/2000/svg">
<mask id="mask0_17_10" style="mask-type:alpha" maskUnits="userSpaceOnUse" x="0" y="0" width="219" height="72">
<rect width="219" height="63" fill="#D9D9D9"/>
<path d="M0 62H56V72H0V62Z" fill="#D9D9D9"/>
<path d="M163 62H219V72H163V62Z" fill="#D9D9D9"/>
</mask>
<g mask="url(#mask0_17_10)">
<rect x="0.875" y="0.875" width="217.25" height="70.25" stroke="black" stroke-width="1.75"/>
</g>
<path d="M78.8826 78.02C78.9572 76.9373 78.9386 75.7893 78.8266 74.576C78.7332 73.344 78.6399 72.1587 78.5466 71.02C78.4532 69.8627 78.4066 68.8173 78.4066 67.884C78.4066 66.932 78.5559 66.1853 78.8546 65.644C78.1639 66.6333 77.5386 67.5573 76.9786 68.416C76.4186 69.2747 75.8866 70.152 75.3826 71.048C74.8786 71.9253 74.3839 72.8587 73.8986 73.848C73.4319 74.8187 72.9372 75.9013 72.4146 77.096C72.1346 77.7493 71.9479 78.2347 71.8546 78.552C71.7799 78.8507 71.6586 79 71.4906 79C71.3412 79 71.2479 78.9347 71.2106 78.804C71.1732 78.6547 71.2199 78.3933 71.3506 78.02C72.3026 75.5187 72.9279 73.2693 73.2266 71.272C73.5439 69.2747 73.5906 67.576 73.3666 66.176C73.1612 64.776 72.7132 63.7027 72.0226 62.956C71.3506 62.2093 70.5106 61.836 69.5026 61.836C68.8119 61.836 68.1866 61.976 67.6266 62.256C67.0852 62.536 66.6186 62.928 66.2266 63.432C65.8532 63.936 65.5639 64.5333 65.3586 65.224C65.1532 65.9147 65.0506 66.6613 65.0506 67.464C65.0132 67.576 64.9479 67.6413 64.8546 67.66C64.7799 67.6787 64.7426 67.6413 64.7426 67.548C64.7052 66.652 64.8172 65.8027 65.0786 65C65.3399 64.1787 65.7132 63.46 66.1986 62.844C66.7026 62.228 67.3092 61.7427 68.0186 61.388C68.7279 61.0147 69.5306 60.828 70.4266 60.828C71.1919 60.828 71.8359 61.024 72.3586 61.416C72.8812 61.808 73.2919 62.3587 73.5906 63.068C73.8892 63.7587 74.0852 64.58 74.1786 65.532C74.2719 66.4653 74.2719 67.4827 74.1786 68.584C74.0852 69.6853 73.8986 70.8427 73.6186 72.056C73.3572 73.2693 73.0212 74.4827 72.6106 75.696C73.1146 74.5387 73.7026 73.3253 74.3746 72.056C75.0652 70.768 75.7932 69.5173 76.5586 68.304C77.3426 67.0907 78.1359 65.9613 78.9386 64.916C79.7599 63.8707 80.5626 62.9933 81.3466 62.284C81.4026 62.2653 81.4492 62.284 81.4866 62.34C81.5426 62.396 81.5799 62.4707 81.5986 62.564C81.6172 62.6573 81.6172 62.7507 81.5986 62.844C81.5986 62.9373 81.5706 63.0213 81.5146 63.096C81.2532 63.264 81.0292 63.432 80.8426 63.6C80.6746 63.7493 80.4879 63.9547 80.2826 64.216C79.9652 64.6267 79.7412 65.1493 79.6106 65.784C79.4986 66.4187 79.4332 67.1093 79.4146 67.856C79.4146 68.6027 79.4519 69.396 79.5266 70.236C79.6199 71.076 79.7039 71.916 79.7786 72.756C79.8532 73.5773 79.9092 74.38 79.9466 75.164C79.9839 75.948 79.9652 76.6667 79.8906 77.32C80.5999 76.256 81.4119 75.2387 82.3266 74.268C83.2412 73.2787 84.1092 72.2707 84.9306 71.244C85.7519 70.2173 86.4426 69.1347 87.0026 67.996C87.5626 66.8573 87.8426 65.588 87.8426 64.188C87.8426 63.5907 87.7586 63.096 87.5906 62.704C87.4226 62.312 87.1799 62.0973 86.8626 62.06C86.6386 62.0413 86.4426 62.1533 86.2746 62.396C86.1066 62.62 85.9572 62.872 85.8266 63.152C85.6399 63.2267 85.5466 63.1613 85.5466 62.956C85.7519 62.4333 86.0226 61.976 86.3586 61.584C86.6946 61.1733 87.0212 60.968 87.3386 60.968C87.7866 60.968 88.1412 61.192 88.4026 61.64C88.6826 62.088 88.8226 62.6293 88.8226 63.264C88.8226 64.384 88.6732 65.4107 88.3746 66.344C88.0759 67.2587 87.6746 68.1267 87.1706 68.948C86.6852 69.7507 86.1252 70.5253 85.4906 71.272C84.8559 72.0187 84.2026 72.7653 83.5306 73.512C82.8772 74.24 82.2239 74.996 81.5706 75.78C80.9359 76.5453 80.3572 77.3667 79.8346 78.244C79.6852 78.468 79.5452 78.6547 79.4146 78.804C79.3026 78.9347 79.1719 79 79.0226 79C78.9292 79 78.8639 78.972 78.8266 78.916C78.8079 78.86 78.7986 78.7853 78.7986 78.692C78.7986 78.5987 78.8079 78.496 78.8266 78.384C78.8639 78.2533 78.8826 78.132 78.8826 78.02ZM91.518 73.064C91.518 73.3253 91.4153 73.568 91.21 73.792C91.0047 74.016 90.7247 74.2213 90.37 74.408C90.0153 74.576 89.6047 74.7347 89.138 74.884C88.69 75.0333 88.214 75.1733 87.71 75.304C87.6913 75.5093 87.6727 75.7147 87.654 75.92C87.654 76.1253 87.654 76.3493 87.654 76.592C87.654 77.0587 87.7567 77.4507 87.962 77.768C88.1673 78.0853 88.4567 78.244 88.83 78.244C89.2033 78.244 89.5487 78.1507 89.866 77.964C90.202 77.7773 90.5007 77.5253 90.762 77.208C90.8367 77.1707 90.8927 77.18 90.93 77.236C90.9673 77.292 90.9673 77.3573 90.93 77.432C90.6127 77.8613 90.2113 78.2347 89.726 78.552C89.2593 78.8507 88.7647 79 88.242 79C87.7567 79 87.3553 78.8413 87.038 78.524C86.7393 78.2067 86.59 77.74 86.59 77.124C86.59 76.564 86.6927 75.976 86.898 75.36C87.1033 74.7253 87.374 74.1467 87.71 73.624C88.046 73.1013 88.4287 72.672 88.858 72.336C89.306 72 89.7727 71.832 90.258 71.832C90.6127 71.832 90.9113 71.9627 91.154 72.224C91.3967 72.4667 91.518 72.7467 91.518 73.064ZM89.67 72.56C89.2407 72.56 88.858 72.7467 88.522 73.12C88.186 73.4933 87.9433 74.0813 87.794 74.884C88.69 74.7533 89.3433 74.5667 89.754 74.324C90.1833 74.0627 90.398 73.7733 90.398 73.456C90.398 73.1947 90.3327 72.98 90.202 72.812C90.0713 72.644 89.894 72.56 89.67 72.56ZM104.708 57.832C105.305 57.832 105.734 58.0653 105.996 58.532C106.276 58.9987 106.341 59.54 106.192 60.156C106.08 60.268 105.986 60.2587 105.912 60.128C105.874 59.7547 105.706 59.4373 105.408 59.176C105.128 58.896 104.689 58.756 104.092 58.756C103.252 58.756 102.393 59.008 101.516 59.512C100.657 60.016 99.7982 60.856 98.9395 62.032C98.0995 63.208 97.2689 64.7667 96.4475 66.708C95.6449 68.6307 94.8702 71.02 94.1235 73.876C94.2915 73.6333 94.4782 73.4 94.6835 73.176C94.9075 72.9333 95.1502 72.7187 95.4115 72.532C95.6729 72.3267 95.9435 72.168 96.2235 72.056C96.5035 71.9253 96.7835 71.86 97.0635 71.86C97.4929 71.86 97.7915 72.0373 97.9595 72.392C98.1462 72.7467 98.2395 73.1573 98.2395 73.624C98.2395 74.2213 98.0902 74.8467 97.7915 75.5C97.4929 76.1347 97.1102 76.7133 96.6435 77.236C96.1955 77.7587 95.7009 78.188 95.1595 78.524C94.6182 78.86 94.1142 79.028 93.6475 79.028C93.3115 79.028 93.0315 78.9347 92.8075 78.748C92.6022 78.5427 92.4995 78.1973 92.4995 77.712C92.4995 77.3013 92.5649 76.76 92.6955 76.088C92.8262 75.416 93.0035 74.6787 93.2275 73.876C93.4515 73.0547 93.7222 72.196 94.0395 71.3C94.3569 70.404 94.7022 69.5173 95.0755 68.64C96.6435 64.944 98.2115 62.2187 99.7795 60.464C101.366 58.7093 103.009 57.832 104.708 57.832ZM96.4475 72.784C96.1675 72.784 95.8689 72.8773 95.5515 73.064C95.2342 73.232 94.9355 73.4933 94.6555 73.848C94.3755 74.2027 94.1329 74.6507 93.9275 75.192C93.7409 75.7333 93.6195 76.3587 93.5635 77.068C93.5262 77.4787 93.5729 77.768 93.7035 77.936C93.8529 78.104 94.0675 78.188 94.3475 78.188C94.7022 78.188 95.0569 78.076 95.4115 77.852C95.7662 77.6093 96.0835 77.3013 96.3635 76.928C96.6435 76.5547 96.8675 76.1347 97.0355 75.668C97.2222 75.2013 97.3155 74.7347 97.3155 74.268C97.3155 73.7267 97.2315 73.344 97.0635 73.12C96.8955 72.896 96.6902 72.784 96.4475 72.784ZM118.972 62.452C119.887 62.9933 120.708 63.6467 121.436 64.412C122.164 65.1587 122.78 65.952 123.284 66.792C123.807 67.632 124.199 68.4907 124.46 69.368C124.74 70.2267 124.88 71.048 124.88 71.832C124.88 72.8773 124.712 73.8387 124.376 74.716C124.04 75.5747 123.546 76.3307 122.892 76.984C122.239 77.6187 121.436 78.1133 120.484 78.468C119.532 78.8227 118.45 79 117.236 79C116.527 79 115.864 78.9533 115.248 78.86C114.632 78.7667 114.044 78.6547 113.484 78.524C112.943 78.3747 112.42 78.216 111.916 78.048C111.412 77.88 110.908 77.712 110.404 77.544C109.676 78.048 108.874 78.4213 107.996 78.664C107.138 78.888 106.176 79 105.112 79C104.515 79 104.095 78.9347 103.852 78.804C103.61 78.6547 103.488 78.4587 103.488 78.216C103.488 77.9733 103.572 77.7213 103.74 77.46C103.908 77.18 104.142 76.928 104.44 76.704C104.739 76.48 105.103 76.3027 105.532 76.172C105.962 76.0227 106.447 75.948 106.988 75.948C107.698 75.948 108.36 76.0133 108.976 76.144C109.592 76.2747 110.19 76.4333 110.768 76.62C111.459 75.892 112.103 74.884 112.7 73.596C113.298 72.308 113.932 70.628 114.604 68.556C114.996 67.3613 115.426 66.2973 115.892 65.364C116.359 64.4307 116.891 63.6373 117.488 62.984C116.76 62.6107 115.986 62.312 115.164 62.088C114.343 61.864 113.484 61.752 112.588 61.752C111.86 61.752 111.188 61.8733 110.572 62.116C109.975 62.34 109.443 62.6667 108.976 63.096C108.51 63.5067 108.127 64.0013 107.828 64.58C107.53 65.1587 107.324 65.8027 107.212 66.512C107.1 66.624 107.026 66.5867 106.988 66.4C107.063 65.616 107.268 64.8973 107.604 64.244C107.94 63.572 108.388 62.9933 108.948 62.508C109.527 62.0227 110.208 61.6493 110.992 61.388C111.795 61.108 112.691 60.968 113.68 60.968C114.539 60.968 115.36 61.0707 116.144 61.276C116.928 61.4813 117.675 61.7707 118.384 62.144C119.392 61.3227 120.587 60.772 121.968 60.492C122.024 60.492 122.052 60.5293 122.052 60.604C122.071 60.66 122.052 60.7067 121.996 60.744C121.399 60.8933 120.848 61.1173 120.344 61.416C119.859 61.696 119.402 62.0413 118.972 62.452ZM106.064 78.496C106.848 78.496 107.548 78.4213 108.164 78.272C108.799 78.104 109.387 77.8147 109.928 77.404C109.312 77.2173 108.678 77.0587 108.024 76.928C107.371 76.7973 106.652 76.732 105.868 76.732C105.364 76.732 104.991 76.816 104.748 76.984C104.506 77.152 104.366 77.3573 104.328 77.6C104.291 77.8613 104.394 78.076 104.636 78.244C104.879 78.412 105.355 78.496 106.064 78.496ZM118.496 78.244C120.27 78.244 121.595 77.7493 122.472 76.76C123.368 75.752 123.816 74.408 123.816 72.728C123.816 71.8507 123.686 70.9733 123.424 70.096C123.163 69.2 122.78 68.3413 122.276 67.52C121.791 66.68 121.203 65.9053 120.512 65.196C119.822 64.4867 119.047 63.8707 118.188 63.348C117.703 63.9453 117.274 64.636 116.9 65.42C116.527 66.1853 116.182 67.044 115.864 67.996C115.174 70.1427 114.464 71.9347 113.736 73.372C113.027 74.7907 112.215 75.9387 111.3 76.816C111.767 76.984 112.252 77.152 112.756 77.32C113.26 77.488 113.792 77.6467 114.352 77.796C114.931 77.9267 115.556 78.0387 116.228 78.132C116.919 78.2067 117.675 78.244 118.496 78.244ZM130.784 73.064C130.784 73.3253 130.681 73.568 130.476 73.792C130.27 74.016 129.99 74.2213 129.636 74.408C129.281 74.576 128.87 74.7347 128.404 74.884C127.956 75.0333 127.48 75.1733 126.976 75.304C126.957 75.5093 126.938 75.7147 126.92 75.92C126.92 76.1253 126.92 76.3493 126.92 76.592C126.92 77.0587 127.022 77.4507 127.228 77.768C127.433 78.0853 127.722 78.244 128.096 78.244C128.469 78.244 128.814 78.1507 129.132 77.964C129.468 77.7773 129.766 77.5253 130.028 77.208C130.102 77.1707 130.158 77.18 130.196 77.236C130.233 77.292 130.233 77.3573 130.196 77.432C129.878 77.8613 129.477 78.2347 128.992 78.552C128.525 78.8507 128.03 79 127.508 79C127.022 79 126.621 78.8413 126.304 78.524C126.005 78.2067 125.856 77.74 125.856 77.124C125.856 76.564 125.958 75.976 126.164 75.36C126.369 74.7253 126.64 74.1467 126.976 73.624C127.312 73.1013 127.694 72.672 128.124 72.336C128.572 72 129.038 71.832 129.524 71.832C129.878 71.832 130.177 71.9627 130.42 72.224C130.662 72.4667 130.784 72.7467 130.784 73.064ZM128.936 72.56C128.506 72.56 128.124 72.7467 127.788 73.12C127.452 73.4933 127.209 74.0813 127.06 74.884C127.956 74.7533 128.609 74.5667 129.02 74.324C129.449 74.0627 129.664 73.7733 129.664 73.456C129.664 73.1947 129.598 72.98 129.468 72.812C129.337 72.644 129.16 72.56 128.936 72.56ZM134.677 71.832C135.05 71.832 135.358 71.8973 135.601 72.028C135.862 72.14 135.993 72.2707 135.993 72.42C135.993 72.6253 135.946 72.8587 135.853 73.12C135.778 73.3813 135.694 73.596 135.601 73.764C135.564 73.8013 135.508 73.8107 135.433 73.792C135.377 73.7547 135.358 73.708 135.377 73.652C135.433 73.5213 135.47 73.372 135.489 73.204C135.508 73.036 135.498 72.8867 135.461 72.756C135.368 72.3827 135.106 72.196 134.677 72.196C134.36 72.196 134.098 72.2893 133.893 72.476C133.706 72.6627 133.613 72.9427 133.613 73.316C133.613 73.6147 133.688 73.904 133.837 74.184C134.005 74.4453 134.182 74.716 134.369 74.996C134.574 75.2573 134.752 75.5467 134.901 75.864C135.069 76.1627 135.153 76.4987 135.153 76.872C135.153 77.4693 134.938 77.9733 134.509 78.384C134.098 78.7947 133.473 79 132.633 79C132.054 79 131.578 78.8973 131.205 78.692C130.832 78.4867 130.645 78.272 130.645 78.048C130.645 77.88 130.748 77.628 130.953 77.292C131.158 76.956 131.392 76.6853 131.653 76.48C131.709 76.4427 131.756 76.452 131.793 76.508C131.849 76.564 131.858 76.62 131.821 76.676C131.672 76.8253 131.56 77.0027 131.485 77.208C131.41 77.3947 131.392 77.5627 131.429 77.712C131.485 78.0293 131.625 78.272 131.849 78.44C132.092 78.5893 132.372 78.664 132.689 78.664C133.174 78.664 133.548 78.5333 133.809 78.272C134.089 78.0107 134.229 77.6747 134.229 77.264C134.229 76.9093 134.145 76.5827 133.977 76.284C133.809 75.9667 133.622 75.668 133.417 75.388C133.23 75.0893 133.053 74.8 132.885 74.52C132.736 74.2213 132.661 73.904 132.661 73.568C132.661 73.0827 132.838 72.672 133.193 72.336C133.566 72 134.061 71.832 134.677 71.832ZM137.519 73.792C137.463 73.8293 137.407 73.82 137.351 73.764C137.313 73.6893 137.313 73.624 137.351 73.568C137.612 73.3067 137.967 73.008 138.415 72.672C138.863 72.336 139.311 72.056 139.758 71.832C139.908 71.832 139.983 71.916 139.983 72.084C139.74 72.5133 139.497 72.98 139.255 73.484C139.031 73.988 138.825 74.492 138.639 74.996C138.471 75.4813 138.331 75.9573 138.219 76.424C138.107 76.872 138.051 77.2453 138.051 77.544C138.051 77.936 138.181 78.132 138.443 78.132C138.648 78.132 138.844 78.048 139.031 77.88C139.236 77.6933 139.469 77.4507 139.731 77.152C139.768 77.1147 139.815 77.124 139.871 77.18C139.927 77.236 139.936 77.3013 139.899 77.376C139.563 77.7867 139.199 78.16 138.807 78.496C138.433 78.832 138.079 79 137.743 79C137.257 79 137.015 78.692 137.015 78.076C137.015 77.7213 137.071 77.3013 137.183 76.816C137.313 76.312 137.472 75.808 137.659 75.304C137.845 74.8 138.051 74.3147 138.275 73.848C138.517 73.3813 138.751 72.98 138.975 72.644C138.769 72.7933 138.508 72.9893 138.191 73.232C137.892 73.456 137.668 73.6427 137.519 73.792ZM140.039 70.628C139.983 70.684 139.927 70.6933 139.871 70.656C139.833 70.6 139.805 70.5347 139.787 70.46C139.768 70.3667 139.758 70.264 139.758 70.152C139.758 70.04 139.787 69.9467 139.843 69.872C140.328 69.2 141.009 68.4813 141.887 67.716C141.943 67.6973 141.999 67.716 142.055 67.772C142.111 67.8093 142.12 67.8467 142.083 67.884C141.691 68.2387 141.317 68.668 140.963 69.172C140.608 69.6573 140.3 70.1427 140.039 70.628ZM146.574 71.44C146.63 71.4027 146.686 71.412 146.742 71.468C146.798 71.5053 146.807 71.5613 146.77 71.636C146.621 71.86 146.434 72.0653 146.21 72.252C145.986 72.42 145.706 72.4947 145.37 72.476C145.538 72.756 145.622 73.12 145.622 73.568C145.622 73.9973 145.557 74.3893 145.426 74.744C145.295 75.0987 145.146 75.4347 144.978 75.752C144.81 76.0693 144.633 76.368 144.446 76.648C144.278 76.928 144.138 77.2173 144.026 77.516C143.933 77.8147 143.886 78.1227 143.886 78.44C143.905 78.7387 144.017 79.0747 144.222 79.448C144.39 79.7653 144.539 80.0453 144.67 80.288C144.819 80.5493 144.941 80.792 145.034 81.016C145.146 81.2587 145.221 81.5013 145.258 81.744C145.314 81.9867 145.342 82.248 145.342 82.528C145.342 82.976 145.249 83.396 145.062 83.788C144.875 84.1987 144.605 84.5533 144.25 84.852C143.895 85.1693 143.466 85.412 142.962 85.58C142.458 85.7667 141.889 85.86 141.254 85.86C140.601 85.86 140.013 85.7667 139.49 85.58C138.967 85.3933 138.529 85.1413 138.174 84.824C137.801 84.5253 137.521 84.1707 137.334 83.76C137.147 83.368 137.054 82.9573 137.054 82.528C137.054 81.968 137.259 81.4733 137.67 81.044C138.062 80.6333 138.631 80.3253 139.378 80.12C139.471 80.12 139.537 80.148 139.574 80.204C139.593 80.2787 139.574 80.344 139.518 80.4C139.126 80.5493 138.809 80.7733 138.566 81.072C138.323 81.3707 138.202 81.772 138.202 82.276C138.202 83.228 138.529 83.9933 139.182 84.572C139.835 85.1507 140.694 85.44 141.758 85.44C142.654 85.44 143.317 85.2067 143.746 84.74C144.175 84.292 144.39 83.704 144.39 82.976C144.39 82.5467 144.325 82.164 144.194 81.828C144.063 81.492 143.867 81.1093 143.606 80.68C143.251 80.0827 143.093 79.5133 143.13 78.972C143.186 78.412 143.382 77.8333 143.718 77.236C143.755 77.1613 143.793 77.096 143.83 77.04C143.886 76.9653 143.933 76.8813 143.97 76.788C143.765 77.012 143.522 77.208 143.242 77.376C142.981 77.544 142.757 77.628 142.57 77.628C141.655 77.628 141.198 77.0307 141.198 75.836C141.198 75.444 141.273 75.0147 141.422 74.548C141.571 74.0813 141.777 73.652 142.038 73.26C142.318 72.8493 142.635 72.5133 142.99 72.252C143.363 71.9907 143.774 71.86 144.222 71.86C144.875 71.86 145.379 71.8413 145.734 71.804C146.089 71.748 146.369 71.6267 146.574 71.44ZM144.334 76.116C144.446 75.8547 144.539 75.584 144.614 75.304C144.689 75.024 144.726 74.744 144.726 74.464C144.726 73.9227 144.633 73.5027 144.446 73.204C144.278 72.8867 143.998 72.728 143.606 72.728C143.158 72.728 142.775 72.952 142.458 73.4C142.159 73.848 142.01 74.4827 142.01 75.304C142.01 75.8453 142.094 76.2373 142.262 76.48C142.449 76.7227 142.719 76.844 143.074 76.844C143.279 76.844 143.503 76.7787 143.746 76.648C143.989 76.5173 144.185 76.34 144.334 76.116ZM154.021 77.208C154.077 77.1707 154.133 77.1707 154.189 77.208C154.245 77.2453 154.264 77.3013 154.245 77.376C153.928 77.8053 153.573 78.188 153.181 78.524C152.808 78.8413 152.453 79 152.117 79C151.538 79 151.249 78.6267 151.249 77.88C151.249 77.2453 151.361 76.5453 151.585 75.78C151.809 74.996 152.117 74.212 152.509 73.428C152.584 73.2973 152.621 73.1667 152.621 73.036C152.621 72.8307 152.528 72.728 152.341 72.728C151.65 72.728 150.885 73.204 150.045 74.156C149.224 75.108 148.458 76.6013 147.749 78.636C147.712 78.748 147.609 78.8413 147.441 78.916C147.273 78.972 147.114 79 146.965 79C146.76 79 146.685 78.916 146.741 78.748C147.058 77.9453 147.385 77.04 147.721 76.032C148.076 75.024 148.384 74.0253 148.645 73.036C148.72 72.6813 148.654 72.504 148.449 72.504C148.262 72.504 148.076 72.5973 147.889 72.784C147.702 72.9707 147.506 73.2133 147.301 73.512C147.264 73.5493 147.217 73.54 147.161 73.484C147.124 73.428 147.114 73.372 147.133 73.316C147.338 72.9987 147.618 72.672 147.973 72.336C148.328 72 148.71 71.832 149.121 71.832C149.588 71.832 149.746 72.1493 149.597 72.784C149.522 73.1947 149.42 73.6333 149.289 74.1C149.158 74.548 149.018 74.996 148.869 75.444C149.13 74.94 149.438 74.464 149.793 74.016C150.148 73.568 150.512 73.1853 150.885 72.868C151.277 72.5507 151.66 72.2987 152.033 72.112C152.425 71.9253 152.789 71.832 153.125 71.832C153.349 71.832 153.517 71.888 153.629 72C153.76 72.112 153.825 72.2427 153.825 72.392C153.825 72.6347 153.769 72.8773 153.657 73.12C153.265 73.8293 152.929 74.576 152.649 75.36C152.388 76.1253 152.257 76.8347 152.257 77.488C152.257 77.9547 152.406 78.188 152.705 78.188C153.097 78.188 153.536 77.8613 154.021 77.208Z" fill="black"/>
<path d="M37.5424 31.605H38.4924L40.5064 36.507L42.5204 31.605H43.4704L41.0954 37.286L43.9264 43.86L49.0944 31.51H50.1584L44.3824 45H43.4894L40.5254 38.065L37.5424 45H36.6494L30.8924 31.51H31.9374L37.1244 43.86L39.9174 37.286L37.5424 31.605ZM63.5528 44.126V45H54.5658V31.51H63.3818V32.384H55.5348V37.685H62.3938V38.521H55.5348V44.126H63.5528ZM76.2732 33.752C76.0578 33.5113 75.8172 33.3023 75.5512 33.125C75.2852 32.935 75.0002 32.783 74.6962 32.669C74.3922 32.5423 74.0628 32.4473 73.7082 32.384C73.3535 32.3207 72.9735 32.289 72.5682 32.289C71.2508 32.289 70.2882 32.5423 69.6802 33.049C69.0848 33.543 68.7872 34.2143 68.7872 35.063C68.7872 35.633 68.9202 36.089 69.1862 36.431C69.4648 36.7603 69.8955 37.0263 70.4782 37.229C71.0608 37.4317 71.8145 37.628 72.7392 37.818C73.7145 38.0207 74.5568 38.2613 75.2662 38.54C75.9755 38.806 76.5202 39.1733 76.9002 39.642C77.2928 40.1107 77.4892 40.744 77.4892 41.542C77.4892 42.1373 77.3752 42.663 77.1472 43.119C76.9192 43.5623 76.5898 43.9297 76.1592 44.221C75.7285 44.5123 75.2155 44.734 74.6202 44.886C74.0375 45.038 73.3852 45.114 72.6632 45.114C71.9665 45.114 71.3015 45.038 70.6682 44.886C70.0348 44.734 69.4395 44.5123 68.8822 44.221C68.3248 43.9297 67.8055 43.556 67.3242 43.1L67.8372 42.321C68.1158 42.625 68.4262 42.8973 68.7682 43.138C69.1228 43.366 69.5028 43.5623 69.9082 43.727C70.3262 43.8917 70.7695 44.0247 71.2382 44.126C71.7068 44.2147 72.1945 44.259 72.7012 44.259C73.8792 44.259 74.7975 44.0437 75.4562 43.613C76.1275 43.1697 76.4632 42.5173 76.4632 41.656C76.4632 41.0607 76.3112 40.5793 76.0072 40.212C75.7032 39.8447 75.2345 39.547 74.6012 39.319C73.9678 39.0783 73.1762 38.8567 72.2262 38.654C71.2762 38.4513 70.4655 38.2233 69.7942 37.97C69.1355 37.7167 68.6352 37.3747 68.2932 36.944C67.9638 36.5133 67.7992 35.9307 67.7992 35.196C67.7992 34.3853 67.9955 33.7013 68.3882 33.144C68.7935 32.574 69.3572 32.1433 70.0792 31.852C70.8012 31.5607 71.6308 31.415 72.5682 31.415C73.1508 31.415 73.6892 31.472 74.1832 31.586C74.6898 31.7 75.1522 31.8773 75.5702 32.118C76.0008 32.346 76.3998 32.6373 76.7672 32.992L76.2732 33.752ZM82.3051 45V31.51H83.2741V44.126H91.3301V45H82.3051ZM104.707 44.126V45H95.7201V31.51H104.536V32.384H96.6891V37.685H103.548V38.521H96.6891V44.126H104.707ZM109.387 31.51L114.099 38.977L118.83 31.51H119.913L114.593 39.908V45H113.624V39.87L108.323 31.51H109.387ZM140.265 45L133.425 37.818C132.88 37.2353 132.443 36.7413 132.114 36.336C131.784 35.918 131.55 35.5443 131.411 35.215C131.271 34.873 131.202 34.5437 131.202 34.227C131.202 33.695 131.347 33.2137 131.639 32.783C131.93 32.3397 132.323 31.9913 132.817 31.738C133.323 31.472 133.887 31.339 134.508 31.339C135.09 31.339 135.61 31.453 136.066 31.681C136.522 31.8963 136.876 32.2003 137.13 32.593C137.396 32.973 137.529 33.4163 137.529 33.923C137.529 34.4677 137.364 34.968 137.035 35.424C136.718 35.8673 136.294 36.2853 135.762 36.678C135.242 37.0707 134.685 37.4633 134.09 37.856C133.558 38.2233 133.057 38.597 132.589 38.977C132.133 39.3443 131.765 39.7433 131.487 40.174C131.221 40.6047 131.088 41.0987 131.088 41.656C131.088 42.264 131.259 42.7707 131.601 43.176C131.943 43.5813 132.373 43.8917 132.893 44.107C133.425 44.3097 133.963 44.411 134.508 44.411C135.23 44.411 135.888 44.2527 136.484 43.936C137.079 43.6067 137.592 43.1633 138.023 42.606C138.466 42.036 138.802 41.39 139.03 40.668C139.27 39.946 139.391 39.186 139.391 38.388H140.227C140.227 39.3 140.081 40.1613 139.79 40.972C139.511 41.7827 139.112 42.5047 138.593 43.138C138.073 43.7713 137.459 44.2717 136.75 44.639C136.04 45.0063 135.255 45.19 134.394 45.19C133.646 45.19 132.95 45.0443 132.304 44.753C131.658 44.4617 131.138 44.05 130.746 43.518C130.353 42.986 130.157 42.3527 130.157 41.618C130.157 40.9467 130.315 40.3577 130.632 39.851C130.948 39.3443 131.366 38.8883 131.886 38.483C132.405 38.065 132.956 37.6597 133.539 37.267C134.159 36.8617 134.704 36.488 135.173 36.146C135.641 35.7913 136.002 35.443 136.256 35.101C136.522 34.7463 136.655 34.3663 136.655 33.961C136.655 33.429 136.446 32.992 136.028 32.65C135.622 32.2953 135.109 32.118 134.489 32.118C134.033 32.118 133.621 32.213 133.254 32.403C132.899 32.593 132.614 32.8463 132.399 33.163C132.196 33.4797 132.095 33.828 132.095 34.208C132.095 34.4233 132.145 34.6577 132.247 34.911C132.348 35.1517 132.544 35.462 132.836 35.842C133.127 36.2093 133.551 36.6843 134.109 37.267L141.538 45H140.265ZM152.142 38.16C152.142 37.3493 152.281 36.5513 152.56 35.766C152.851 34.968 153.269 34.246 153.814 33.6C154.358 32.9413 155.023 32.4157 155.809 32.023C156.607 31.6303 157.512 31.434 158.526 31.434C159.729 31.434 160.755 31.7127 161.604 32.27C162.452 32.8147 163.086 33.5177 163.504 34.379L162.706 34.835C162.389 34.2143 161.996 33.7203 161.528 33.353C161.072 32.9857 160.578 32.726 160.046 32.574C159.514 32.4093 158.982 32.327 158.45 32.327C157.601 32.327 156.841 32.498 156.17 32.84C155.511 33.182 154.954 33.638 154.498 34.208C154.042 34.778 153.693 35.4113 153.453 36.108C153.225 36.8047 153.111 37.5077 153.111 38.217C153.111 39.015 153.25 39.775 153.529 40.497C153.807 41.2063 154.187 41.8397 154.669 42.397C155.163 42.9543 155.733 43.3977 156.379 43.727C157.037 44.0563 157.747 44.221 158.507 44.221C159.051 44.221 159.602 44.1323 160.16 43.955C160.73 43.765 161.262 43.48 161.756 43.1C162.25 42.7073 162.649 42.2007 162.953 41.58L163.789 41.979C163.497 42.6503 163.06 43.2203 162.478 43.689C161.895 44.1577 161.249 44.5123 160.54 44.753C159.83 44.9937 159.127 45.114 158.431 45.114C157.519 45.114 156.676 44.9177 155.904 44.525C155.131 44.1197 154.46 43.5877 153.89 42.929C153.332 42.2577 152.902 41.5103 152.598 40.687C152.294 39.851 152.142 39.0087 152.142 38.16ZM173.813 45.095C172.876 45.095 172.021 44.905 171.248 44.525C170.475 44.1323 169.81 43.613 169.253 42.967C168.696 42.321 168.265 41.5927 167.961 40.782C167.657 39.9587 167.505 39.1163 167.505 38.255C167.505 37.3557 167.663 36.5007 167.98 35.69C168.297 34.8667 168.74 34.1383 169.31 33.505C169.893 32.859 170.564 32.3523 171.324 31.985C172.097 31.605 172.933 31.415 173.832 31.415C174.782 31.415 175.637 31.6113 176.397 32.004C177.17 32.3967 177.835 32.9223 178.392 33.581C178.949 34.2397 179.38 34.9743 179.684 35.785C179.988 36.5957 180.14 37.419 180.14 38.255C180.14 39.167 179.982 40.0347 179.665 40.858C179.348 41.6687 178.899 42.397 178.316 43.043C177.746 43.6763 177.075 44.1767 176.302 44.544C175.542 44.9113 174.712 45.095 173.813 45.095ZM168.474 38.255C168.474 39.0277 168.607 39.7687 168.873 40.478C169.139 41.1873 169.506 41.8207 169.975 42.378C170.456 42.9353 171.02 43.3787 171.666 43.708C172.325 44.0373 173.047 44.202 173.832 44.202C174.63 44.202 175.358 44.031 176.017 43.689C176.676 43.347 177.239 42.891 177.708 42.321C178.177 41.751 178.531 41.1177 178.772 40.421C179.025 39.7117 179.152 38.9897 179.152 38.255C179.152 37.4823 179.019 36.7413 178.753 36.032C178.5 35.3227 178.132 34.6893 177.651 34.132C177.17 33.5747 176.6 33.1313 175.941 32.802C175.295 32.4727 174.592 32.308 173.832 32.308C173.021 32.308 172.287 32.479 171.628 32.821C170.969 33.163 170.406 33.619 169.937 34.189C169.481 34.759 169.12 35.3987 168.854 36.108C168.601 36.8047 168.474 37.5203 168.474 38.255ZM184.307 45V43.385H185.143V45H184.307Z" fill="black"/>
</svg>
