<svg width="129" height="54" viewBox="0 0 129 54" fill="none" xmlns="http://www.w3.org/2000/svg">
<g clip-path="url(#clip0_7_11)">
<path d="M22.114 18.7546H22.6736L23.8599 21.6635L25.0463 18.7546H25.6059L24.2069 22.1258L25.8745 26.0268L28.9186 18.6982H29.5454L26.1431 26.7033H25.617L23.8711 22.588L22.114 26.7033H21.588L18.1969 18.6982H18.8124L21.8678 26.0268L23.513 22.1258L22.114 18.7546ZM37.4352 26.1847V26.7033H32.1415V18.6982H37.3345V19.2169H32.7123V22.3625H36.7525V22.8586H32.7123V26.1847H37.4352ZM44.9281 20.0287C44.8012 19.8858 44.6595 19.7618 44.5028 19.6566C44.3461 19.5438 44.1782 19.4536 43.9991 19.386C43.8201 19.3108 43.626 19.2544 43.4172 19.2169C43.2082 19.1793 42.9844 19.1605 42.7457 19.1605C41.9697 19.1605 41.4026 19.3108 41.0445 19.6115C40.6938 19.9046 40.5185 20.303 40.5185 20.8066C40.5185 21.1449 40.5968 21.4155 40.7535 21.6184C40.9176 21.8138 41.1713 21.9717 41.5146 22.0919C41.8577 22.2122 42.3017 22.3287 42.8464 22.4415C43.4209 22.5617 43.917 22.7045 44.3349 22.8699C44.7527 23.0277 45.0735 23.2457 45.2974 23.5238C45.5286 23.802 45.6443 24.1778 45.6443 24.6513C45.6443 25.0046 45.5772 25.3165 45.4429 25.5871C45.3086 25.8502 45.1145 26.0682 44.8609 26.241C44.6072 26.4139 44.305 26.5455 43.9544 26.6357C43.6111 26.7258 43.2269 26.7709 42.8016 26.7709C42.3912 26.7709 41.9995 26.7258 41.6265 26.6357C41.2534 26.5455 40.9027 26.4139 40.5745 26.241C40.2461 26.0682 39.9402 25.8464 39.6567 25.5758L39.9589 25.1136C40.123 25.294 40.3059 25.4555 40.5073 25.5984C40.7162 25.7337 40.94 25.8502 41.1788 25.9479C41.425 26.0456 41.6861 26.1245 41.9622 26.1847C42.2383 26.2373 42.5255 26.2636 42.824 26.2636C43.5179 26.2636 44.0588 26.1358 44.4468 25.8802C44.8422 25.6172 45.04 25.23 45.04 24.7189C45.04 24.3657 44.9504 24.08 44.7714 23.8621C44.5923 23.6441 44.3162 23.4675 43.9432 23.3322C43.5701 23.1893 43.1038 23.0578 42.5442 22.9375C41.9846 22.8173 41.5071 22.682 41.1117 22.5317C40.7237 22.3813 40.429 22.1784 40.2275 21.9228C40.0335 21.6672 39.9365 21.3215 39.9365 20.8855C39.9365 20.4045 40.0521 19.9986 40.2835 19.6679C40.5222 19.3296 40.8542 19.074 41.2795 18.9012C41.7048 18.7283 42.1935 18.6419 42.7457 18.6419C43.0888 18.6419 43.406 18.6757 43.697 18.7433C43.9954 18.811 44.2677 18.9162 44.514 19.059C44.7676 19.1943 45.0026 19.3672 45.219 19.5777L44.9281 20.0287ZM48.4811 26.7033V18.6982H49.0519V26.1847H53.7972V26.7033H48.4811ZM61.6767 26.1847V26.7033H56.3831V18.6982H61.576V19.2169H56.9539V22.3625H60.994V22.8586H56.9539V26.1847H61.6767ZM64.4334 18.6982L67.209 23.1292L69.9958 18.6982H70.6337L67.5 23.6817V26.7033H66.9292V23.6591L63.8067 18.6982H64.4334ZM82.6219 26.7033L78.5928 22.4415C78.2718 22.0957 78.0144 21.8025 77.8206 21.562C77.6262 21.314 77.4884 21.0922 77.4065 20.8968C77.324 20.6939 77.2834 20.4985 77.2834 20.3105C77.2834 19.9948 77.3688 19.7092 77.5408 19.4537C77.7122 19.1906 77.9437 18.9839 78.2347 18.8335C78.5327 18.6757 78.8649 18.5968 79.2307 18.5968C79.5736 18.5968 79.8799 18.6644 80.1485 18.7997C80.4171 18.9275 80.6256 19.1079 80.7752 19.3409C80.9319 19.5664 81.0102 19.8295 81.0102 20.1301C81.0102 20.4534 80.913 20.7502 80.7193 21.0208C80.5325 21.2839 80.2828 21.5319 79.9694 21.765C79.6631 21.998 79.335 22.231 78.9845 22.464C78.6712 22.682 78.3761 22.9037 78.1004 23.1292C77.8318 23.3472 77.615 23.5839 77.4513 23.8395C77.2946 24.0951 77.2162 24.3882 77.2162 24.7189C77.2162 25.0797 77.317 25.3804 77.5184 25.6209C77.7199 25.8614 77.9731 26.0456 78.2794 26.1734C78.5928 26.2937 78.9097 26.3538 79.2307 26.3538C79.656 26.3538 80.0436 26.2598 80.3947 26.0719C80.7452 25.8765 81.0473 25.6134 81.3012 25.2827C81.5622 24.9444 81.7601 24.5611 81.8944 24.1327C82.0358 23.7042 82.107 23.2532 82.107 22.7797H82.5995C82.5995 23.3209 82.5135 23.832 82.3421 24.3131C82.1777 24.7941 81.9427 25.2226 81.637 25.5984C81.3307 25.9742 80.969 26.2711 80.5514 26.4891C80.1332 26.707 79.6708 26.816 79.1636 26.816C78.723 26.816 78.313 26.7296 77.9325 26.5567C77.552 26.3839 77.2457 26.1396 77.0148 25.8239C76.7833 25.5082 76.6678 25.1324 76.6678 24.6964C76.6678 24.298 76.7609 23.9485 76.9476 23.6478C77.1338 23.3472 77.38 23.0766 77.6863 22.8361C77.992 22.588 78.3166 22.3475 78.66 22.1145C79.0252 21.874 79.3462 21.6522 79.6225 21.4493C79.8981 21.2388 80.1108 21.0321 80.2604 20.8292C80.4171 20.6187 80.4954 20.3932 80.4954 20.1527C80.4954 19.837 80.3723 19.5777 80.1261 19.3747C79.8869 19.1642 79.5848 19.059 79.2196 19.059C78.951 19.059 78.7083 19.1154 78.4921 19.2282C78.283 19.3409 78.1151 19.4912 77.9885 19.6791C77.8689 19.8671 77.8094 20.0738 77.8094 20.2993C77.8094 20.427 77.8388 20.5661 77.8989 20.7164C77.9584 20.8593 78.0739 21.0434 78.2459 21.2689C78.4173 21.4868 78.667 21.7687 78.9957 22.1145L83.3717 26.7033H82.6219ZM89.6179 22.6444C89.6179 22.1633 89.6998 21.6898 89.8641 21.2238C90.0355 20.7502 90.2817 20.3218 90.6028 19.9385C90.9232 19.5476 91.3149 19.2357 91.7779 19.0027C92.248 18.7696 92.781 18.6531 93.3783 18.6531C94.087 18.6531 94.6913 18.8185 95.1914 19.1492C95.6909 19.4725 96.0644 19.8896 96.3106 20.4007L95.8405 20.6713C95.6538 20.303 95.4223 20.0099 95.1466 19.7919C94.878 19.5739 94.5871 19.4198 94.2737 19.3296C93.9603 19.2319 93.6469 19.1831 93.3336 19.1831C92.8335 19.1831 92.3858 19.2845 91.9906 19.4875C91.6024 19.6904 91.2743 19.961 91.0057 20.2993C90.7371 20.6375 90.5315 21.0133 90.3901 21.4267C90.2558 21.8402 90.1887 22.2573 90.1887 22.6782C90.1887 23.1518 90.2706 23.6028 90.4349 24.0312C90.5987 24.4521 90.8225 24.828 91.1064 25.1587C91.3974 25.4894 91.7331 25.7525 92.1137 25.9479C92.5013 26.1433 92.9195 26.241 93.3671 26.241C93.6876 26.241 94.0122 26.1884 94.3408 26.0832C94.6766 25.9704 94.99 25.8013 95.2809 25.5758C95.5719 25.3428 95.807 25.0422 95.986 24.6738L96.4785 24.9106C96.3065 25.309 96.0491 25.6472 95.7062 25.9253C95.3628 26.2035 94.9823 26.4139 94.5647 26.5567C94.1464 26.6996 93.7323 26.7709 93.3224 26.7709C92.7852 26.7709 92.2886 26.6545 91.8339 26.4214C91.3785 26.1809 90.9833 25.8652 90.6475 25.4744C90.3189 25.076 90.0656 24.6325 89.8865 24.1439C89.7074 23.6478 89.6179 23.148 89.6179 22.6444ZM102.383 26.7597C101.831 26.7597 101.327 26.6469 100.872 26.4214C100.417 26.1884 100.025 25.8802 99.697 25.4969C99.3689 25.1136 99.115 24.6814 98.9359 24.2003C98.7569 23.7118 98.6673 23.2119 98.6673 22.7008C98.6673 22.1671 98.7604 21.6598 98.9471 21.1787C99.1339 20.6901 99.3948 20.2579 99.7306 19.8821C100.074 19.4987 100.469 19.1981 100.917 18.9801C101.372 18.7546 101.865 18.6419 102.394 18.6419C102.954 18.6419 103.457 18.7584 103.905 18.9914C104.36 19.2244 104.752 19.5363 105.08 19.9272C105.408 20.3181 105.662 20.754 105.841 21.2351C106.02 21.7161 106.11 22.2047 106.11 22.7008C106.11 23.242 106.017 23.7569 105.83 24.2454C105.643 24.7265 105.379 25.1587 105.035 25.542C104.7 25.9178 104.304 26.2147 103.849 26.4327C103.401 26.6507 102.913 26.7597 102.383 26.7597ZM99.2381 22.7008C99.2381 23.1593 99.3165 23.599 99.4731 24.0199C99.6298 24.4408 99.846 24.8167 100.122 25.1474C100.406 25.4781 100.738 25.7412 101.118 25.9366C101.507 26.132 101.932 26.2298 102.394 26.2298C102.864 26.2298 103.293 26.1283 103.681 25.9253C104.069 25.7224 104.401 25.4518 104.677 25.1136C104.954 24.7753 105.162 24.3995 105.304 23.9861C105.453 23.5652 105.528 23.1367 105.528 22.7008C105.528 22.2422 105.45 21.8025 105.293 21.3816C105.144 20.9607 104.927 20.5849 104.644 20.2542C104.36 19.9234 104.025 19.6603 103.636 19.4649C103.256 19.2695 102.842 19.1718 102.394 19.1718C101.916 19.1718 101.484 19.2733 101.096 19.4762C100.708 19.6791 100.376 19.9497 100.1 20.288C99.8313 20.6262 99.6186 21.0058 99.462 21.4267C99.3129 21.8402 99.2381 22.2648 99.2381 22.7008ZM108.564 26.7033V25.7449H109.057V26.7033H108.564Z" fill="black"/>
<path d="M128.485 0.519226H0.515411V42.206H128.485V0.519226Z" stroke="black" stroke-width="1.75"/>
<path d="M96.0137 37.3846H32.9863V54H96.0137V37.3846Z" fill="#F5F0E8"/>
<path d="M46.4651 46.2976C46.509 45.6551 46.4981 44.9739 46.4321 44.2539C46.3771 43.5228 46.3221 42.8194 46.2672 42.1437C46.2122 41.457 46.1847 40.8366 46.1847 40.2828C46.1847 39.7179 46.2726 39.2748 46.4486 38.9536C46.0417 39.5406 45.6734 40.0889 45.3436 40.5985C45.0137 41.1081 44.7003 41.6287 44.4034 42.1603C44.1066 42.6809 43.8152 43.2348 43.5293 43.8219C43.2544 44.3979 42.963 45.0403 42.6552 45.7493C42.4902 46.1369 42.3803 46.425 42.3253 46.6133C42.2813 46.7905 42.2099 46.8791 42.1109 46.8791C42.0229 46.8791 41.9679 46.8404 41.946 46.7628C41.9239 46.6742 41.9514 46.5191 42.0284 46.2976C42.5892 44.8133 42.9575 43.4785 43.1335 42.2933C43.3204 41.1081 43.3479 40.1 43.2159 39.2693C43.095 38.4385 42.8311 37.8016 42.4243 37.3585C42.0284 36.9154 41.5336 36.6939 40.9399 36.6939C40.533 36.6939 40.1647 36.777 39.8348 36.9431C39.5159 37.1093 39.2411 37.3419 39.0102 37.641C38.7902 37.94 38.6198 38.2945 38.4989 38.7043C38.3779 39.1142 38.3175 39.5572 38.3175 40.0336C38.2954 40.1 38.257 40.1388 38.202 40.1499C38.158 40.161 38.136 40.1388 38.136 40.0834C38.114 39.5517 38.18 39.0478 38.334 38.5714C38.4879 38.0841 38.7078 37.6576 38.9937 37.292C39.2906 36.9265 39.6479 36.6385 40.0657 36.428C40.4836 36.2065 40.9564 36.0957 41.4842 36.0957C41.935 36.0957 42.3143 36.212 42.6222 36.4447C42.93 36.6773 43.1719 37.0041 43.3479 37.425C43.5238 37.8348 43.6392 38.3222 43.6942 38.8871C43.7492 39.4409 43.7492 40.0447 43.6942 40.6982C43.6392 41.3517 43.5293 42.0385 43.3644 42.7585C43.2104 43.4785 43.0125 44.1985 42.7706 44.9185C43.0675 44.2318 43.4139 43.5117 43.8097 42.7585C44.2165 41.9942 44.6453 41.252 45.0962 40.532C45.558 39.8121 46.0253 39.1419 46.4981 38.5216C46.9819 37.9013 47.4547 37.3806 47.9165 36.9597C47.9495 36.9486 47.9769 36.9597 47.999 36.993C48.0319 37.0262 48.0539 37.0705 48.0649 37.1259C48.0759 37.1813 48.0759 37.2367 48.0649 37.292C48.0649 37.3474 48.0484 37.3973 48.0154 37.4416C47.8615 37.5413 47.7295 37.641 47.6196 37.7407C47.5207 37.8292 47.4107 37.9511 47.2897 38.1062C47.1028 38.3499 46.9708 38.66 46.8939 39.0367C46.8279 39.4133 46.7894 39.8231 46.7785 40.2662C46.7785 40.7093 46.8004 41.18 46.8444 41.6785C46.8994 42.177 46.9489 42.6754 46.9929 43.1739C47.0368 43.6612 47.0698 44.1376 47.0918 44.6028C47.1138 45.068 47.1028 45.4945 47.0588 45.8822C47.4767 45.2508 47.955 44.6471 48.4937 44.0711C49.0325 43.4841 49.5438 42.8859 50.0276 42.2767C50.5114 41.6674 50.9182 41.025 51.2481 40.3493C51.578 39.6736 51.7429 38.9203 51.7429 38.0896C51.7429 37.7351 51.6934 37.4416 51.5945 37.209C51.4955 36.9763 51.3525 36.8489 51.1656 36.8268C51.0337 36.8157 50.9182 36.8822 50.8193 37.0262C50.7203 37.1591 50.6323 37.3087 50.5554 37.4748C50.4454 37.5191 50.3905 37.4803 50.3905 37.3585C50.5114 37.0483 50.6708 36.777 50.8688 36.5443C51.0667 36.3006 51.2591 36.1788 51.446 36.1788C51.7099 36.1788 51.9188 36.3117 52.0728 36.5776C52.2377 36.8434 52.3202 37.1646 52.3202 37.5413C52.3202 38.2059 52.2322 38.8151 52.0563 39.369C51.8803 39.9118 51.6439 40.4268 51.3471 40.9142C51.0611 41.3905 50.7313 41.8502 50.3575 42.2933C49.9836 42.7364 49.5988 43.1794 49.203 43.6225C48.8181 44.0545 48.4333 44.5031 48.0484 44.9683C47.6746 45.4225 47.3337 45.9099 47.0259 46.4305C46.9379 46.5634 46.8554 46.6742 46.7785 46.7628C46.7125 46.8404 46.6355 46.8791 46.5476 46.8791C46.4925 46.8791 46.4541 46.8625 46.4321 46.8293C46.4211 46.796 46.4156 46.7517 46.4156 46.6963C46.4156 46.641 46.4211 46.58 46.4321 46.5136C46.4541 46.436 46.4651 46.364 46.4651 46.2976ZM53.9079 43.3567C53.9079 43.5117 53.8474 43.6557 53.7264 43.7887C53.6055 43.9216 53.4406 44.0434 53.2316 44.1542C53.0227 44.2539 52.7808 44.3481 52.5059 44.4367C52.2421 44.5253 51.9617 44.6083 51.6648 44.6859C51.6538 44.8077 51.6428 44.9296 51.6318 45.0514C51.6318 45.1733 51.6318 45.3062 51.6318 45.4502C51.6318 45.7271 51.6923 45.9598 51.8132 46.148C51.9342 46.3363 52.1046 46.4305 52.3245 46.4305C52.5444 46.4305 52.7479 46.3751 52.9348 46.2643C53.1327 46.1536 53.3086 46.004 53.4625 45.8157C53.5065 45.7936 53.5395 45.7991 53.5615 45.8323C53.5835 45.8656 53.5835 45.9043 53.5615 45.9487C53.3746 46.2034 53.1382 46.425 52.8523 46.6133C52.5774 46.7905 52.2861 46.8791 51.9782 46.8791C51.6923 46.8791 51.4559 46.7849 51.269 46.5967C51.093 46.4084 51.0051 46.1314 51.0051 45.7659C51.0051 45.4336 51.0656 45.0847 51.1865 44.7191C51.3074 44.3425 51.4669 43.9991 51.6648 43.689C51.8627 43.3788 52.0881 43.124 52.341 42.9247C52.6049 42.7253 52.8798 42.6256 53.1657 42.6256C53.3746 42.6256 53.5505 42.7031 53.6934 42.8582C53.8364 43.0022 53.9079 43.1684 53.9079 43.3567ZM52.8193 43.0576C52.5664 43.0576 52.341 43.1684 52.1431 43.3899C51.9452 43.6114 51.8022 43.9603 51.7143 44.4367C52.2421 44.3591 52.6269 44.2484 52.8688 44.1043C53.1217 43.9493 53.2481 43.7776 53.2481 43.5893C53.2481 43.4342 53.2097 43.3068 53.1327 43.2071C53.0557 43.1074 52.9513 43.0576 52.8193 43.0576ZM61.6773 34.3179C62.029 34.3179 62.2817 34.4563 62.436 34.7333C62.6009 35.0102 62.6392 35.3314 62.5515 35.697C62.4855 35.7634 62.4301 35.7579 62.3865 35.6803C62.3641 35.4588 62.2652 35.2705 62.0896 35.1154C61.9247 34.9493 61.6661 34.8662 61.3145 34.8662C60.8197 34.8662 60.3137 35.0157 59.7971 35.3148C59.2911 35.6139 58.7852 36.1123 58.2794 36.8102C57.7846 37.508 57.2954 38.433 56.8115 39.585C56.3388 40.7259 55.8824 42.1437 55.4426 43.8385C55.5416 43.6945 55.6515 43.556 55.7725 43.4231C55.9044 43.2791 56.0474 43.1518 56.2013 43.041C56.3553 42.9191 56.5147 42.825 56.6796 42.7585C56.8445 42.6809 57.0095 42.6422 57.1744 42.6422C57.4273 42.6422 57.6032 42.7474 57.7022 42.9579C57.8121 43.1684 57.8671 43.412 57.8671 43.689C57.8671 44.0434 57.7792 44.4145 57.6032 44.8022C57.4273 45.1788 57.2019 45.5222 56.927 45.8323C56.6631 46.1425 56.3718 46.3973 56.0529 46.5967C55.734 46.796 55.4371 46.8957 55.1622 46.8957C54.9643 46.8957 54.7994 46.8404 54.6674 46.7296C54.5465 46.6078 54.486 46.4028 54.486 46.1148C54.486 45.8711 54.5245 45.5499 54.6015 45.1511C54.6784 44.7523 54.7829 44.3148 54.9148 43.8385C55.0468 43.3511 55.2062 42.8416 55.3931 42.3099C55.5801 41.7782 55.7835 41.252 56.0034 40.7314C56.927 38.5382 57.8506 36.921 58.7742 35.8797C59.7087 34.8385 60.6765 34.3179 61.6773 34.3179ZM56.8115 43.1905C56.6466 43.1905 56.4707 43.2459 56.2838 43.3567C56.0969 43.4563 55.9209 43.6114 55.756 43.8219C55.591 44.0324 55.4481 44.2982 55.3272 44.6194C55.2172 44.9406 55.1457 45.3118 55.1127 45.7327C55.0908 45.9764 55.1183 46.148 55.1952 46.2477C55.2832 46.3474 55.4096 46.3973 55.5746 46.3973C55.7835 46.3973 55.9924 46.3308 56.2013 46.1979C56.4102 46.0539 56.5971 45.8711 56.7621 45.6496C56.927 45.4281 57.0589 45.1788 57.1579 44.9019C57.2679 44.6249 57.3228 44.3481 57.3228 44.0711C57.3228 43.7499 57.2733 43.5228 57.1744 43.3899C57.0754 43.257 56.9545 43.1905 56.8115 43.1905ZM70.0794 37.0594C70.6184 37.3806 71.102 37.7684 71.5308 38.2225C71.9596 38.6656 72.3225 39.1363 72.6193 39.6348C72.9274 40.1333 73.1583 40.6428 73.3121 41.1634C73.477 41.673 73.5594 42.1603 73.5594 42.6256C73.5594 43.2459 73.4605 43.8164 73.2626 44.337C73.0647 44.8465 72.7737 45.2951 72.3884 45.6828C72.0038 46.0594 71.5308 46.3529 70.97 46.5634C70.4093 46.7739 69.7719 46.8791 69.0568 46.8791C68.6392 46.8791 68.2487 46.8514 67.8858 46.796C67.523 46.7407 67.1766 46.6742 66.8467 46.5967C66.5281 46.5081 66.22 46.4139 65.9231 46.3142C65.6262 46.2145 65.3294 46.1148 65.0325 46.0151C64.6037 46.3142 64.1313 46.5357 63.6141 46.6797C63.1087 46.8127 62.542 46.8791 61.9153 46.8791C61.5636 46.8791 61.3162 46.8404 61.1731 46.7628C61.0305 46.6742 60.9587 46.5579 60.9587 46.4139C60.9587 46.2699 61.0082 46.1203 61.1071 45.9653C61.2061 45.7991 61.3439 45.6496 61.5195 45.5167C61.6956 45.3837 61.91 45.2785 62.1627 45.201C62.416 45.1124 62.7017 45.068 63.0203 45.068C63.4385 45.068 63.8285 45.1068 64.1913 45.1843C64.5542 45.2619 64.9064 45.356 65.2469 45.4668C65.6539 45.0348 66.0333 44.4367 66.3849 43.6723C66.7372 42.908 67.1106 41.9111 67.5065 40.6816C67.7374 39.9726 67.9907 39.3413 68.2651 38.7874C68.5402 38.2336 68.8536 37.7628 69.2053 37.3751C68.7764 37.1536 68.3205 36.9763 67.8363 36.8434C67.3527 36.7105 66.8467 36.644 66.319 36.644C65.8901 36.644 65.4943 36.716 65.1314 36.86C64.7798 36.993 64.4664 37.1868 64.1913 37.4416C63.9168 37.6853 63.6912 37.9788 63.5151 38.3222C63.3396 38.6656 63.2182 39.0478 63.1523 39.4687C63.0863 39.5351 63.0427 39.513 63.0203 39.4022C63.0645 38.937 63.1853 38.5105 63.3832 38.1228C63.5811 37.724 63.845 37.3806 64.1748 37.0927C64.5159 36.8047 64.917 36.5831 65.3788 36.428C65.8518 36.2619 66.3796 36.1788 66.9622 36.1788C67.4682 36.1788 67.9518 36.2398 68.4136 36.3616C68.8754 36.4834 69.3154 36.6551 69.733 36.8767C70.3268 36.3893 71.0307 36.0625 71.8442 35.8963C71.8772 35.8963 71.8936 35.9185 71.8936 35.9628C71.9048 35.996 71.8936 36.0238 71.8607 36.0459C71.509 36.1345 71.1844 36.2674 70.8876 36.4447C70.6019 36.6108 70.3327 36.8157 70.0794 37.0594ZM62.4761 46.58C62.9379 46.58 63.3502 46.5357 63.713 46.4471C64.0871 46.3474 64.4334 46.1758 64.7521 45.932C64.3893 45.8213 64.0158 45.7271 63.6306 45.6496C63.2459 45.572 62.8224 45.5333 62.3606 45.5333C62.0637 45.5333 61.844 45.5831 61.7009 45.6828C61.5583 45.7825 61.4759 45.9043 61.4535 46.0483C61.4317 46.2034 61.4924 46.3308 61.6349 46.4305C61.778 46.5302 62.0584 46.58 62.4761 46.58ZM69.799 46.4305C70.844 46.4305 71.6245 46.1369 72.141 45.5499C72.6688 44.9517 72.9327 44.1542 72.9327 43.1573C72.9327 42.6367 72.8561 42.116 72.7018 41.5954C72.5481 41.0637 72.3225 40.5542 72.0256 40.0668C71.7399 39.5683 71.3935 39.1086 70.9865 38.6877C70.5801 38.2668 70.1236 37.9013 69.6176 37.5911C69.3319 37.9456 69.0792 38.3554 68.8589 38.8207C68.6392 39.2748 68.436 39.7843 68.2487 40.3493C67.8422 41.6231 67.424 42.6865 66.9952 43.5394C66.5775 44.3813 66.0992 45.0625 65.5603 45.5831C65.8354 45.6828 66.121 45.7825 66.4179 45.8822C66.7148 45.9819 67.0282 46.0761 67.358 46.1647C67.6991 46.2422 68.0672 46.3087 68.4631 46.364C68.8701 46.4084 69.3154 46.4305 69.799 46.4305ZM77.0371 43.3567C77.0371 43.5117 76.9765 43.6557 76.8557 43.7887C76.7344 43.9216 76.5694 44.0434 76.3609 44.1542C76.1518 44.2539 75.9097 44.3481 75.6352 44.4367C75.3713 44.5253 75.091 44.6083 74.7941 44.6859C74.7829 44.8077 74.7717 44.9296 74.7611 45.0514C74.7611 45.1733 74.7611 45.3062 74.7611 45.4502C74.7611 45.7271 74.8212 45.9598 74.9425 46.148C75.0633 46.3363 75.2335 46.4305 75.4538 46.4305C75.6735 46.4305 75.8767 46.3751 76.0641 46.2643C76.262 46.1536 76.4375 46.004 76.5918 45.8157C76.6354 45.7936 76.6684 45.7991 76.6908 45.8323C76.7126 45.8656 76.7126 45.9043 76.6908 45.9487C76.5035 46.2034 76.2673 46.425 75.9816 46.6133C75.7065 46.7905 75.4149 46.8791 75.1075 46.8791C74.8212 46.8791 74.585 46.7849 74.3982 46.5967C74.2221 46.4084 74.1344 46.1314 74.1344 45.7659C74.1344 45.4336 74.1944 45.0847 74.3158 44.7191C74.4365 44.3425 74.5962 43.9991 74.7941 43.689C74.992 43.3788 75.217 43.124 75.4703 42.9247C75.7342 42.7253 76.0087 42.6256 76.295 42.6256C76.5035 42.6256 76.6796 42.7031 76.8227 42.8582C76.9653 43.0022 77.0371 43.1684 77.0371 43.3567ZM75.9486 43.0576C75.6953 43.0576 75.4703 43.1684 75.2724 43.3899C75.0745 43.6114 74.9313 43.9603 74.8436 44.4367C75.3713 44.3591 75.756 44.2484 75.9981 44.1043C76.2508 43.9493 76.3774 43.7776 76.3774 43.5893C76.3774 43.4342 76.3385 43.3068 76.262 43.2071C76.1848 43.1074 76.0805 43.0576 75.9486 43.0576ZM79.3303 42.6256C79.55 42.6256 79.7314 42.6643 79.8746 42.7419C80.0283 42.8083 80.1055 42.8859 80.1055 42.9745C80.1055 43.0963 80.0778 43.2348 80.023 43.3899C79.9788 43.5449 79.9293 43.6723 79.8746 43.772C79.8528 43.7942 79.8198 43.7998 79.7756 43.7887C79.7426 43.7665 79.7314 43.7388 79.7426 43.7056C79.7756 43.628 79.7974 43.5394 79.8086 43.4397C79.8198 43.34 79.8139 43.2514 79.7921 43.1739C79.7373 42.9524 79.583 42.8416 79.3303 42.8416C79.1436 42.8416 78.9892 42.8969 78.8685 43.0077C78.7583 43.1185 78.7035 43.2847 78.7035 43.5062C78.7035 43.6834 78.7477 43.8551 78.8355 44.0213C78.9345 44.1763 79.0387 44.337 79.1489 44.5031C79.2696 44.6582 79.3745 44.8299 79.4622 45.0182C79.5612 45.1954 79.6107 45.3948 79.6107 45.6163C79.6107 45.9708 79.484 46.2699 79.2313 46.5136C78.9892 46.7573 78.6211 46.8791 78.1263 46.8791C77.7852 46.8791 77.5048 46.8182 77.2851 46.6963C77.0654 46.5745 76.9553 46.4471 76.9553 46.3142C76.9553 46.2145 77.0159 46.065 77.1367 45.8656C77.2574 45.6662 77.3953 45.5056 77.549 45.3837C77.582 45.3616 77.6097 45.3671 77.6315 45.4003C77.6645 45.4336 77.6698 45.4668 77.648 45.5C77.5602 45.5886 77.4942 45.6939 77.4501 45.8157C77.4059 45.9265 77.3953 46.0262 77.4171 46.1148C77.4501 46.3031 77.5325 46.4471 77.6645 46.5468C77.8076 46.6354 77.9725 46.6797 78.1593 46.6797C78.445 46.6797 78.6653 46.6022 78.819 46.4471C78.9839 46.2921 79.0664 46.0927 79.0664 45.849C79.0664 45.6385 79.0169 45.4447 78.918 45.2674C78.819 45.0791 78.7088 44.9019 78.5881 44.7357C78.4779 44.5585 78.3737 44.3868 78.2747 44.2207C78.187 44.0434 78.1428 43.8551 78.1428 43.6557C78.1428 43.3678 78.247 43.124 78.4561 42.9247C78.6759 42.7253 78.9674 42.6256 79.3303 42.6256ZM81.0043 43.7887C80.9714 43.8108 80.9384 43.8053 80.9054 43.772C80.883 43.7277 80.883 43.689 80.9054 43.6557C81.0591 43.5007 81.2682 43.3234 81.5321 43.124C81.796 42.9247 82.0599 42.7585 82.3232 42.6256C82.4116 42.6256 82.4557 42.6754 82.4557 42.7751C82.3126 43.0299 82.1695 43.3068 82.0269 43.6059C81.895 43.905 81.7736 44.204 81.6641 44.5031C81.5651 44.7911 81.4826 45.0736 81.4167 45.3505C81.3507 45.6164 81.3177 45.8379 81.3177 46.0151C81.3177 46.2477 81.3943 46.364 81.5486 46.364C81.6694 46.364 81.7848 46.3142 81.895 46.2145C82.0157 46.1037 82.153 45.9598 82.3073 45.7825C82.3291 45.7604 82.3568 45.7659 82.3898 45.7991C82.4228 45.8323 82.4281 45.8711 82.4063 45.9154C82.2083 46.1591 81.9939 46.3807 81.763 46.58C81.5427 46.7794 81.3342 46.8791 81.1363 46.8791C80.85 46.8791 80.7075 46.6963 80.7075 46.3308C80.7075 46.1203 80.7404 45.8711 80.8064 45.5831C80.883 45.284 80.9767 44.985 81.0868 44.6859C81.1964 44.3868 81.3177 44.0988 81.4497 43.8219C81.5922 43.5449 81.73 43.3068 81.862 43.1074C81.7406 43.196 81.5869 43.3123 81.4002 43.4563C81.224 43.5893 81.0921 43.7001 81.0043 43.7887ZM82.4887 41.9111C82.4557 41.9443 82.4228 41.9499 82.3898 41.9277C82.3674 41.8945 82.3509 41.8558 82.3403 41.8114C82.3291 41.7561 82.3232 41.6951 82.3232 41.6287C82.3232 41.5622 82.3403 41.5068 82.3733 41.4625C82.659 41.0637 83.0601 40.6373 83.5773 40.1831C83.6103 40.172 83.6432 40.1831 83.6762 40.2163C83.7092 40.2385 83.7145 40.2607 83.6927 40.2828C83.4618 40.4933 83.2415 40.748 83.033 41.0471C82.8239 41.3351 82.6425 41.6231 82.4887 41.9111ZM86.3381 42.393C86.3711 42.3708 86.4041 42.3763 86.4371 42.4096C86.4701 42.4317 86.4754 42.4649 86.4536 42.5093C86.3658 42.6422 86.2556 42.764 86.1237 42.8748C85.9918 42.9745 85.8268 43.0188 85.6289 43.0077C85.7279 43.1739 85.7773 43.3899 85.7773 43.6557C85.7773 43.9105 85.739 44.1431 85.6619 44.3536C85.5847 44.5641 85.497 44.7634 85.398 44.9517C85.299 45.14 85.1948 45.3173 85.0846 45.4834C84.9857 45.6496 84.9032 45.8213 84.8372 45.9985C84.7824 46.1758 84.7548 46.3585 84.7548 46.5468C84.766 46.7241 84.8319 46.9234 84.9527 47.145C85.0516 47.3333 85.1394 47.4994 85.2166 47.6434C85.3043 47.7985 85.3762 47.9425 85.431 48.0754C85.497 48.2194 85.5411 48.3634 85.5629 48.5074C85.5959 48.6514 85.6124 48.8065 85.6124 48.9727C85.6124 49.2385 85.5576 49.4877 85.4475 49.7203C85.3373 49.9641 85.1783 50.1745 84.9692 50.3517C84.7601 50.54 84.5074 50.684 84.2105 50.7837C83.9136 50.8945 83.5784 50.9499 83.2044 50.9499C82.8198 50.9499 82.4734 50.8945 82.1653 50.7837C81.8573 50.6729 81.5993 50.5234 81.3902 50.3351C81.1704 50.1579 81.0055 49.9474 80.8954 49.7037C80.7852 49.4711 80.7304 49.2274 80.7304 48.9727C80.7304 48.6403 80.8512 48.3468 81.0933 48.092C81.3242 47.8483 81.6594 47.6656 82.0994 47.5437C82.1542 47.5437 82.193 47.5603 82.2148 47.5936C82.226 47.6379 82.2148 47.6767 82.1818 47.7099C81.9509 47.7985 81.7642 47.9314 81.6211 48.1087C81.4779 48.2859 81.4067 48.524 81.4067 48.8231C81.4067 49.388 81.5993 49.8422 81.9839 50.1856C82.3686 50.529 82.8745 50.7007 83.5013 50.7007C84.0291 50.7007 84.4196 50.5622 84.6723 50.2853C84.925 50.0194 85.0516 49.6705 85.0516 49.2385C85.0516 48.9838 85.0134 48.7567 84.9362 48.5573C84.859 48.3579 84.7436 48.1308 84.5898 47.876C84.3807 47.5216 84.2877 47.1837 84.3095 46.8625C84.3424 46.5302 84.4579 46.1868 84.6558 45.8323C84.6776 45.788 84.7 45.7493 84.7218 45.716C84.7548 45.6717 84.7824 45.6219 84.8042 45.5665C84.6835 45.6994 84.5404 45.8157 84.3754 45.9154C84.2217 46.0151 84.0897 46.065 83.9796 46.065C83.4406 46.065 83.1714 45.7105 83.1714 45.0016C83.1714 44.769 83.2156 44.5142 83.3034 44.2373C83.3911 43.9603 83.5125 43.7056 83.6662 43.473C83.8311 43.2293 84.0179 43.0299 84.227 42.8748C84.4467 42.7198 84.6888 42.6422 84.9527 42.6422C85.3373 42.6422 85.6342 42.6311 85.8433 42.609C86.0524 42.5757 86.2174 42.5038 86.3381 42.393ZM85.0187 45.1677C85.0846 45.0127 85.1394 44.852 85.1836 44.6859C85.2278 44.5197 85.2496 44.3536 85.2496 44.1874C85.2496 43.8662 85.1948 43.617 85.0846 43.4397C84.9857 43.2514 84.8207 43.1573 84.5898 43.1573C84.3259 43.1573 84.1003 43.2902 83.9136 43.556C83.7375 43.8219 83.6497 44.1985 83.6497 44.6859C83.6497 45.0071 83.6992 45.2397 83.7982 45.3837C83.9083 45.5278 84.0674 45.5997 84.2765 45.5997C84.3972 45.5997 84.5292 45.561 84.6723 45.4834C84.8154 45.4059 84.9309 45.3007 85.0187 45.1677ZM90.7247 45.8157C90.7577 45.7936 90.7907 45.7936 90.8237 45.8157C90.8566 45.8379 90.8678 45.8711 90.8566 45.9154C90.6699 46.1702 90.4608 46.3973 90.2299 46.5967C90.0102 46.7849 89.8011 46.8791 89.6032 46.8791C89.2621 46.8791 89.0919 46.6576 89.0919 46.2145C89.0919 45.8379 89.1578 45.4225 89.2898 44.9683C89.4217 44.5031 89.6032 44.0379 89.8341 43.5727C89.8782 43.4951 89.9 43.4176 89.9 43.34C89.9 43.2182 89.8453 43.1573 89.7351 43.1573C89.3281 43.1573 88.8775 43.4397 88.3827 44.0047C87.8991 44.5696 87.4479 45.4557 87.0302 46.6631C87.0084 46.7296 86.9478 46.7849 86.8488 46.8293C86.7498 46.8625 86.6562 46.8791 86.5684 46.8791C86.4477 46.8791 86.4035 46.8293 86.4365 46.7296C86.6232 46.2533 86.8158 45.716 87.0137 45.1179C87.2228 44.5197 87.4043 43.9271 87.558 43.34C87.6022 43.1296 87.5633 43.0243 87.4426 43.0243C87.3324 43.0243 87.2229 43.0797 87.1127 43.1905C87.0025 43.3013 86.8871 43.4453 86.7663 43.6225C86.7445 43.6446 86.7169 43.6391 86.6839 43.6059C86.6621 43.5727 86.6562 43.5394 86.6674 43.5062C86.7881 43.3179 86.9531 43.124 87.1622 42.9247C87.3713 42.7253 87.5963 42.6256 87.8384 42.6256C88.1135 42.6256 88.2065 42.8139 88.1188 43.1905C88.0746 43.4342 88.0145 43.6945 87.9374 43.9714C87.8602 44.2373 87.7777 44.5031 87.69 44.769C87.8437 44.4699 88.0251 44.1874 88.2342 43.9216C88.4433 43.6557 88.6577 43.4286 88.8775 43.2403C89.1084 43.0521 89.334 42.9025 89.5537 42.7917C89.7846 42.6809 89.999 42.6256 90.1969 42.6256C90.3289 42.6256 90.4278 42.6588 90.4938 42.7253C90.571 42.7917 90.6092 42.8693 90.6092 42.9579C90.6092 43.1019 90.5763 43.2459 90.5103 43.3899C90.2794 43.8108 90.0815 44.2539 89.9165 44.7191C89.7628 45.1733 89.6856 45.5942 89.6856 45.9819C89.6856 46.2588 89.7734 46.3973 89.9495 46.3973C90.1804 46.3973 90.439 46.2034 90.7247 45.8157Z" fill="black"/>
</g>
<defs>
<clipPath id="clip0_7_11">
<rect width="129" height="54" fill="white"/>
</clipPath>
</defs>
</svg>
